<svg xmlns="http://www.w3.org/2000/svg" version="1.1" xmlns:xlink="http://www.w3.org/1999/xlink" xmlns:svgjs="http://svgjs.com/svgjs" width="1920" height="1080" preserveAspectRatio="none" viewBox="0 0 1920 1080"><g mask="url(&quot;#SvgjsMask1026&quot;)" fill="none"><rect width="1920" height="1080" x="0" y="0" fill="rgba(27, 31, 40, 1)"></rect><path d="M960 1442.8C1189.23 1441.95 1382.01 1285.59 1533.92 1113.92 1675.5 953.95 1754.65 753.59 1759 540 1763.45 321.45 1711.57 97.52 1557.82-57.82 1403.43-213.85 1179.47-270.05 960-267.3 743.59-264.58 526.5-199.53 377-43 230.39 110.51 188.06 327.74 188.91 540 189.76 751.24 244.54 957.66 381.73 1118.27 530.95 1293 730.23 1443.69 960 1442.8" fill="rgba(33, 37, 47, 1)"></path><path d="M960 1124.17C1108.32 1123.62 1233.06 1022.44 1331.36 911.36 1422.97 807.85 1474.18 678.2 1477 540 1479.88 398.58 1446.31 253.69 1346.83 153.17 1246.92 52.22 1102.01 15.85 960 17.63 819.97 19.39 679.5 61.48 582.77 162.77 487.9 262.1 460.51 402.65 461.06 540 461.61 676.69 497.05 810.25 585.82 914.18 682.38 1027.23 811.32 1124.74 960 1124.17" fill="rgba(37, 42, 53, 1)"></path><path d="M960 805.53C1027.42 805.28 1084.12 759.29 1128.8 708.8 1170.44 661.75 1193.72 602.82 1195 540 1196.31 475.72 1181.05 409.86 1135.83 364.17 1090.42 318.28 1024.55 301.75 960 302.56 896.35 303.36 832.5 322.49 788.53 368.53 745.41 413.68 732.96 477.57 733.21 540 733.46 602.13 749.57 662.84 789.92 710.08 833.81 761.47 892.42 805.79 960 805.53" fill="rgba(43, 49, 61, 1)"></path></g><defs><mask id="SvgjsMask1026"><rect width="1920" height="1080" fill="#ffffff"></rect></mask></defs></svg>