/* XPM */
static char * icewm_xpm[] = {
"38 22 6 1",
" 	c None",
".	c #0061FE",
"+	c #0061FF",
"@	c #5DCC35",
"#	c #FFC705",
"$	c #FF5E40",
"                                      ",
"                                      ",
"          .++++++.                    ",
"          ++++++++                    ",
"          ++++++++  @@@@@@            ",
"          ++++++++  @@@@@@            ",
"          ++++++++  @@@@@@            ",
"          ++++++++  @@@@@@            ",
"          ++++++++  @@@@@@            ",
"          .++++++.  @@@@@@            ",
"                                      ",
"                                      ",
"            ######  $$$$$$$$          ",
"            ######  $$$$$$$$          ",
"            ######  $$$$$$$$          ",
"            ######  $$$$$$$$          ",
"            ######  $$$$$$$$          ",
"            ######  $$$$$$$$          ",
"                    $$$$$$$$          ",
"                    $$$$$$$$          ",
"                                      ",
"                                      "};
