/* XPM */
static char * rolldownA_xpm[] = {
"20 40 7 1",
" 	c #303030",
".	c #5A2569",
"+	c #731D8C",
"@	c #5D236E",
"#	c #A90DD6",
"$	c #C705FF",
"%	c #36342F",
"                    ",
"                    ",
"                    ",
"        .++.        ",
"      @#$$$$#@      ",
"     +$$$$$$$$+     ",
"    @$$$$$$$$$$@    ",
"    #$$$$$$$$$$#    ",
"   .$$$$$$$$$$$$.   ",
"   +$$$$$$$$$$$$+   ",
"   +$$$$$$$$$$$$+   ",
"   .$$$$$$$$$$$$.   ",
"    #$$$$$$$$$$#    ",
"    @$$$$$$$$$$@    ",
"     +$$$$$$$$+     ",
"      @#$$$$#@      ",
"        .++.        ",
"                    ",
"                    ",
"                    ",
"                    ",
"                    ",
"                    ",
"        .++.        ",
"      @#$$$$#@      ",
"     +$$$$$$$$+     ",
"    @$$$$$$$$$$@    ",
"    #$$$$$$$$$$#    ",
"   .$$$$$$$$$$$$.   ",
"   +$+%%%%%%%%+$+   ",
"   +$+%%%%%%%%+$+   ",
"   .$$$$$$$$$$$$.   ",
"    #$$$$$$$$$$#    ",
"    @$$$$$$$$$$@    ",
"     +$$$$$$$$+     ",
"      @#$$$$#@      ",
"        .++.        ",
"                    ",
"                    ",
"                    "};
