<?xml version="1.0" encoding="UTF-8" standalone="no"?>
<svg
   xmlns:dc="http://purl.org/dc/elements/1.1/"
   xmlns:cc="http://creativecommons.org/ns#"
   xmlns:rdf="http://www.w3.org/1999/02/22-rdf-syntax-ns#"
   xmlns:svg="http://www.w3.org/2000/svg"
   xmlns="http://www.w3.org/2000/svg"
   xmlns:sodipodi="http://sodipodi.sourceforge.net/DTD/sodipodi-0.dtd"
   xmlns:inkscape="http://www.inkscape.org/namespaces/inkscape"
   width="20"
   height="20"
   viewBox="0 0 5.2916666 5.2916668"
   version="1.1"
   id="svg8"
   inkscape:export-filename="/home/jeff/.config/icewm/themes/KM-Reborn/taskbar/windows.png"
   inkscape:export-xdpi="96"
   inkscape:export-ydpi="96"
   inkscape:version="1.0.1 (3bc2e813f5, 2020-09-07)"
   sodipodi:docname="icon-drawing.svg">
  <defs
     id="defs2" />
  <sodipodi:namedview
     id="base"
     pagecolor="#ffffff"
     bordercolor="#666666"
     borderopacity="1.0"
     inkscape:pageopacity="0.0"
     inkscape:pageshadow="2"
     inkscape:zoom="5.6000001"
     inkscape:cx="31.657087"
     inkscape:cy="6.2664898"
     inkscape:document-units="px"
     inkscape:current-layer="layer1"
     inkscape:document-rotation="0"
     showgrid="false"
     units="px"
     inkscape:window-width="1920"
     inkscape:window-height="1004"
     inkscape:window-x="0"
     inkscape:window-y="0"
     inkscape:window-maximized="1" />
  <metadata
     id="metadata5">
    <rdf:RDF>
      <cc:Work
         rdf:about="">
        <dc:format>image/svg+xml</dc:format>
        <dc:type
           rdf:resource="http://purl.org/dc/dcmitype/StillImage" />
        <dc:title></dc:title>
      </cc:Work>
    </rdf:RDF>
  </metadata>
  <g
     inkscape:label="Layer 1"
     inkscape:groupmode="layer"
     id="layer1">
    <path
       id="path888"
       style="fill:#cccccc;stroke-width:0.0059059"
       d="m 2.0221635,0.52916775 c -0.1565067,0 -0.2834831,0.126977 -0.2834831,0.2834831 V 2.2548705 H 2.0221635 V 1.4741111 h 2.4568522 v 1.3819794 c 0,0.019491 -0.015949,0.035434 -0.035434,0.035434 H 3.8742534 V 3.175008 H 4.4790169 C 4.6355231,3.175008 4.7625,3.048031 4.7625,2.8915249 V 0.81264975 c 0,-0.1565062 -0.1269769,-0.2834831 -0.2834831,-0.2834831 z M 1.4174,1.3229203 c -0.1565067,0 -0.2834831,0.1269764 -0.2834831,0.2834831 V 3.0486225 H 1.4174 V 2.2678637 H 3.8742523 V 3.649843 c 0,0.019491 -0.015943,0.035434 -0.035434,0.035434 H 3.2694894 v 0.2834826 h 0.604764 c 0.1565062,0 0.2834826,-0.1269764 0.2834826,-0.2834831 V 1.6064019 c 0,-0.1565067 -0.1269764,-0.2834831 -0.2834826,-0.2834831 z M 3.269502,2.1166592 H 0.81264975 c -0.15650615,0 -0.28348309,0.1269764 -0.28348309,0.2834831 V 4.479017 c 0,0.1565063 0.12697694,0.283483 0.28348309,0.283483 H 3.269502 c 0.1565061,0 0.2834825,-0.1269767 0.2834825,-0.283483 V 2.4001423 c 0,-0.1565067 -0.1269764,-0.2834831 -0.2834825,-0.2834831 z m 0,2.3269224 c 0,0.01949 -0.015949,0.035436 -0.035434,0.035436 H 0.84808471 c -0.0194915,0 -0.0354344,-0.015946 -0.0354344,-0.035436 V 3.0616025 H 3.2695025 Z" />
    <path
       fill="currentColor"
       d="M 9.4592104,-8.6840897 H 5.9314326 c -0.1947629,0 -0.3527778,0.1580148 -0.3527778,0.3527778 v 2.3518521 c 0,0.1947629 0.1580149,0.3527777 0.3527778,0.3527777 H 7.342544 L 7.2249514,-5.2739043 H 6.6957846 c -0.097749,0 -0.1763892,0.07864 -0.1763892,0.1763891 0,0.097749 0.07864,0.1763886 0.1763892,0.1763886 h 1.9990738 c 0.097749,0 0.1763891,-0.07864 0.1763891,-0.1763886 0,-0.097749 -0.07864,-0.1763891 -0.1763891,-0.1763891 H 8.1656921 L 8.0480995,-5.6266821 h 1.4111109 c 0.1947628,0 0.3527777,-0.1580148 0.3527777,-0.3527777 v -2.3518521 c 0,-0.194763 -0.1580149,-0.3527778 -0.3527777,-0.3527778 z M 9.3416178,-6.0970524 H 6.0490252 v -2.116667 h 3.2925926 z"
       id="path836"
       style="fill:#cccccc;stroke-width:0.00734954" />
  </g>
</svg>
