/* XPM */
static char * rollupI_xpm[] = {
"20 40 17 1",
" 	c #303030",
".	c #3C3C3C",
"+	c #4A4A4A",
"@	c #484848",
"#	c #797979",
"$	c #898989",
"%	c #787878",
"&	c #474747",
"*	c #575757",
"=	c #888888",
"-	c #565656",
";	c #3B3B3B",
">	c #494949",
",	c #777777",
"'	c #464646",
")	c #555555",
"!	c #444444",
"                    ",
"                    ",
"                    ",
"        .++.        ",
"      @#$$$$%&      ",
"     *=$$$$$$=-     ",
"    @=$$$$$$$$=&    ",
"    %$$$$$$$$$$%    ",
"   .$$$$$$$$$$$$;   ",
"   +$$$$$$$$$$$$+   ",
"   +$$$$$$$$$$$$>   ",
"   .$$$$$$$$$$$$;   ",
"    %$$$$$$$$$$,    ",
"    &=$$$$$$$$='    ",
"     -=$$$$$$=)     ",
"      &%$$$$,'      ",
"        ;++;        ",
"                    ",
"                    ",
"                    ",
"                    ",
"                    ",
"                    ",
"        .++.        ",
"      @#$$$$%&      ",
"     *=$$!!$$=-     ",
"    @=$$$  $$$=&    ",
"    %$$$$  $$$$%    ",
"   .$$$$$  $$$$$;   ",
"   +$$$$$  $$$$$+   ",
"   +$$$$$  $$$$$>   ",
"   .$$$$$  $$$$$;   ",
"    %$$$=  =$$$,    ",
"    &=$$$  $$$='    ",
"     -=$$!!$$=)     ",
"      &%$$$$,'      ",
"        ;++;        ",
"                    ",
"                    ",
"                    "};
